<svg xmlns="http://www.w3.org/2000/svg" xmlns:xlink="http://www.w3.org/1999/xlink" viewBox="0 0 644.06 642.99"><defs><style>.cls-1{opacity:0.26;fill:url(#Sfumatura_senza_nome_97);}.cls-2{fill:url(#名称未設定グラデーション_13);}.cls-3{fill:url(#名称未設定グラデーション_13-2);}.cls-4{fill:url(#名称未設定グラデーション_13-3);}.cls-5{fill:url(#名称未設定グラデーション_13-4);}.cls-6{fill:url(#名称未設定グラデーション_13-5);}.cls-7{fill:url(#名称未設定グラデーション_13-6);}.cls-8{fill:url(#名称未設定グラデーション_13-7);}.cls-9{fill:url(#名称未設定グラデーション_13-8);}.cls-10{fill:url(#名称未設定グラデーション_13-9);}.cls-11{fill:url(#名称未設定グラデーション_13-10);}.cls-12{fill:url(#名称未設定グラデーション_13-11);}.cls-13{fill:url(#名称未設定グラデーション_13-12);}.cls-14{fill:url(#名称未設定グラデーション_13-13);}.cls-15{font-size:52px;fill:#ef4136;font-family:Didot-Bold, Didot;font-weight:700;}</style><radialGradient id="Sfumatura_senza_nome_97" cx="-170.15" cy="494.21" r="62.24" gradientTransform="translate(856.69 330.48) scale(3.04 0.45)" gradientUnits="userSpaceOnUse"><stop offset="0"/><stop offset="1" stop-color="#fff" stop-opacity="0"/></radialGradient><linearGradient id="名称未設定グラデーション_13" x1="232.62" y1="514.67" x2="450.26" y2="285.02" gradientUnits="userSpaceOnUse"><stop offset="0" stop-color="#fff33b"/><stop offset="0.05" stop-color="#fee72e"/><stop offset="0.14" stop-color="#fed51b"/><stop offset="0.23" stop-color="#fdca10"/><stop offset="0.33" stop-color="#fdc70c"/><stop offset="0.73" stop-color="#f3903f"/><stop offset="0.92" stop-color="#ed683c"/><stop offset="1" stop-color="#e93e3a"/></linearGradient><linearGradient id="名称未設定グラデーション_13-2" x1="122.47" y1="410.29" x2="340.11" y2="180.63" xlink:href="#名称未設定グラデーション_13"/><linearGradient id="名称未設定グラデーション_13-3" x1="208.78" y1="492.07" x2="426.42" y2="262.42" xlink:href="#名称未設定グラデーション_13"/><linearGradient id="名称未設定グラデーション_13-4" x1="208.95" y1="492.24" x2="426.59" y2="262.58" xlink:href="#名称未設定グラデーション_13"/><linearGradient id="名称未設定グラデーション_13-5" x1="178.45" y1="463.34" x2="396.09" y2="233.68" xlink:href="#名称未設定グラデーション_13"/><linearGradient id="名称未設定グラデーション_13-6" x1="237.94" y1="519.71" x2="455.58" y2="290.06" xlink:href="#名称未設定グラデーション_13"/><linearGradient id="名称未設定グラデーション_13-7" x1="226.28" y1="508.66" x2="443.92" y2="279.01" xlink:href="#名称未設定グラデーション_13"/><linearGradient id="名称未設定グラデーション_13-8" x1="270.11" y1="550.2" x2="487.75" y2="320.55" xlink:href="#名称未設定グラデーション_13"/><linearGradient id="名称未設定グラデーション_13-9" x1="252.69" y1="533.69" x2="470.33" y2="304.04" xlink:href="#名称未設定グラデーション_13"/><linearGradient id="名称未設定グラデーション_13-10" x1="154.69" y1="440.82" x2="372.34" y2="211.17" xlink:href="#名称未設定グラデーション_13"/><linearGradient id="名称未設定グラデーション_13-11" x1="92.75" y1="382.12" x2="310.39" y2="152.46" xlink:href="#名称未設定グラデーション_13"/><linearGradient id="名称未設定グラデーション_13-12" x1="115.02" y1="403.22" x2="332.66" y2="173.57" xlink:href="#名称未設定グラデーション_13"/><linearGradient id="名称未設定グラデーション_13-13" x1="64.83" y1="355.66" x2="282.47" y2="126" xlink:href="#名称未設定グラデーション_13"/></defs><g id="Background"><path class="cls-1" d="M528.49,554.8c0,15.6-84.74,28.25-189.28,28.25S149.92,570.4,149.92,554.8s84.75-28.25,189.29-28.25S528.49,539.2,528.49,554.8Z"/></g><g id="Objects"><path class="cls-2" d="M435.18,277.2v5.26l2.93.55a296.34,296.34,0,0,0,32.73,4V281q-6.7-.06-13.39-.58A222.25,222.25,0,0,1,435.18,277.2Z"/><path class="cls-3" d="M359.31,265.76V97.42h-40.2v158.9c8.89,1.79,17.66,3.87,26.25,6.11Q352.34,264.08,359.31,265.76Z"/><path class="cls-4" d="M319.11,269.83V439.05h40.2V276.75L343,273.89C334.91,272.44,327,271,319.11,269.83Z"/><path class="cls-5" d="M435.18,277.2c-4.71-.9-9.39-1.92-14-3Q407.91,271,395,267v7.12c13.36,3,26.75,5.87,40.2,8.33Z"/><path class="cls-6" d="M435.18,273.18V154.12H395V266.25q13.27,3,26.71,5.11C426.18,272.05,430.68,272.67,435.18,273.18Z"/><path class="cls-7" d="M395,382.77h40.2V288.54c-13.47-1.6-26.86-3.57-40.2-5.73Z"/><path class="cls-8" d="M510.28,266.4l.76-.27V192.64h-40.2v81.49A174.22,174.22,0,0,0,493.26,271,134.7,134.7,0,0,0,510.28,266.4Z"/><path class="cls-9" d="M470.84,290.86V343.5H511V285a117.75,117.75,0,0,1-25.81,5.22C480.44,290.65,475.64,290.83,470.84,290.86Z"/><path class="cls-10" d="M470.84,281v6.1c4.73.27,9.47.38,14.21.24a115,115,0,0,0,26-3.66v-6.92a146.73,146.73,0,0,1-16.37,2.94A181.56,181.56,0,0,1,470.84,281Z"/><path class="cls-11" d="M250.66,268.42c-2.49.33-5,.73-7.42,1.17V382.77h40.2V266.69A211.43,211.43,0,0,0,250.66,268.42Z"/><path class="cls-12" d="M283.44,251.17V153.05h-40.2v98.38c1.88-.19,3.76-.36,5.64-.49A220.18,220.18,0,0,1,283.44,251.17Z"/><path class="cls-13" d="M180.77,298c-1.25,1.18-2.46,2.39-3.58,3.61a35.72,35.72,0,0,0-2.72,3.29,11.66,11.66,0,0,1-7.1,5.13V343.5h40.2v-63a110.9,110.9,0,0,0-18.65,10.84A87.77,87.77,0,0,0,180.77,298Z"/><path class="cls-14" d="M199.73,261.53c2.59-1,5.21-1.9,7.84-2.75V193.71h-40.2v86c3-2.37,6.08-4.59,9.24-6.61A132.22,132.22,0,0,1,199.73,261.53Z"/><text class="cls-15" transform="translate(130.6 490.69) scale(2.04 1)">WAVUS</text></g></svg>